# 3ds Max Wavefront OBJ Exporter v0.97b - (c)2007 guruware
# File Created: 02.07.2014 15:30:09

mtllib YiZhan_01_m.mtl

#
# object default
#

v  73.6119 150.4303 32.1018
v  77.4819 150.0824 24.3618
v  73.6119 150.3571 27.2643
v  36.8469 150.0836 49.6743
v  41.6844 150.0836 44.6793
v  40.7169 150.0836 40.8092
v  62.9694 152.1333 31.1343
v  61.0344 152.4561 34.0368
v  63.9369 151.8586 33.0693
v  69.7419 151.0163 33.0693
v  71.6769 150.6134 33.0693
v  70.7094 150.5768 30.1668
v  43.6194 151.2910 43.7118
v  43.6194 150.8698 40.8092
v  50.3919 151.7305 36.9393
v  54.2619 152.4080 35.9718
v  52.3354 152.4080 34.8465
v  62.0019 152.4561 30.1668
v  53.2944 152.4561 25.3293
v  53.2944 152.4561 28.2318
v  76.5144 150.2838 30.1668
v  66.8394 152.0417 73.7043
v  66.8394 151.8586 76.6068
v  70.7094 151.8586 72.7368
v  66.8394 151.4008 28.2318
v  66.8394 151.1811 30.1668
v  70.7094 150.4853 27.2643
v  50.3919 152.3861 42.7443
v  54.7808 152.3861 40.4560
v  62.9694 152.4080 36.9393
v  65.8719 151.6206 33.0693
v  64.9044 151.9136 74.6718
v  62.9694 152.4080 77.5742
v  65.8719 151.5290 31.1343
v  65.8719 152.3347 27.2643
v  44.5869 151.9502 46.6143
v  46.5219 152.3861 46.6143
v  45.5544 151.6938 43.7118
v  41.6844 150.0092 45.6468
v  42.6519 150.0092 46.6143
v  62.9694 152.3861 37.9067
v  62.9694 152.4080 73.7043
v  63.9369 152.4080 69.8343
v  67.8069 152.0784 71.7693
v  68.7744 152.3861 69.8343
v  56.2433 150.0739 2.0356
v  44.5869 150.0836 35.0043
v  46.5219 150.7966 35.9718
v  72.6444 152.4080 71.7693
v  41.6844 150.2472 41.7768
v  65.8719 151.8952 35.9718
v  57.1644 152.3861 73.7043
v  64.9044 152.3861 68.8667
v  76.5144 150.1007 24.3618
v  69.7419 150.8149 27.2643
v  66.8394 152.4561 26.2968
v  73.6119 150.2472 26.2968
v  82.6837 152.3861 34.1178
v  50.3919 152.3861 70.8018
v  57.1644 152.3530 81.4442
v  65.8719 152.2615 77.5742
v  49.4244 151.4192 36.9393
v  46.5582 151.1237 38.9502
v  45.1186 151.0236 41.9706
v  47.4894 151.1628 36.9393
v  5.5256 150.0739 -13.3538
v  52.5008 152.4561 31.7742
v  33.8472 152.3861 53.8262
v  54.2619 152.4561 23.3943
v  31.9367 152.4080 70.4809
v  3.1056 150.0739 50.5794
v  73.6119 152.3861 69.8343
# 72 vertices

vn -0.0308 0.9950 -0.0948
vn 0.0177 0.9998 -0.0063
vn 0.0424 0.9976 -0.0551
vn -0.2815 0.9596 -0.0037
vn -0.0477 0.9988 -0.0141
vn -0.0259 0.9986 0.0462
vn 0.0719 0.9974 -0.0085
vn 0.1665 0.9853 -0.0384
vn 0.1120 0.9647 -0.2382
vn 0.1259 0.9249 -0.3586
vn 0.1169 0.9921 -0.0466
vn 0.0185 0.9954 -0.0944
vn -0.3945 0.9139 -0.0961
vn -0.2598 0.9592 -0.1116
vn 0.0761 0.9953 -0.0594
vn -0.0232 0.9412 -0.3372
vn -0.2543 0.9671 0.0094
vn 0.0813 0.9953 0.0523
vn -0.4481 0.8888 -0.0963
vn -0.3842 0.9232 0.0080
vn -0.2138 0.9707 0.1098
vn 0.1620 0.9824 0.0929
vn 0.3115 0.8896 -0.3341
vn -0.0406 0.9990 0.0208
vn 0.2826 0.9591 0.0179
vn 0.2508 0.9667 0.0517
vn 0.0143 0.9999 -0.0056
vn -0.0264 0.9996 0.0020
vn -0.0870 0.9941 -0.0652
vn -0.2307 0.9635 0.1361
vn -0.0852 0.9916 0.0972
vn 0.1477 0.9856 -0.0824
vn 0.0122 0.9688 0.2476
vn 0.0567 0.9668 -0.2493
vn 0.2899 0.9211 0.2598
vn 0.1311 0.9633 -0.2344
vn 0.4560 0.8029 0.3841
vn -0.0895 0.9915 -0.0944
vn -0.0143 0.9534 -0.3014
vn -0.3829 0.9174 -0.1085
vn 0.1895 0.9818 0.0145
vn 0.0013 1.0000 0.0083
vn 0.0088 0.9969 -0.0782
vn 0.1976 0.9717 -0.1294
vn -0.0696 0.9915 0.1098
vn -0.0226 0.9993 0.0305
vn -0.0961 0.9874 0.1257
vn 0.1895 0.9809 -0.0441
vn 0.1855 0.9664 -0.1779
vn -0.0354 0.9830 -0.1800
vn -0.1942 0.9616 0.1942
vn -0.4486 0.8579 -0.2506
vn 0.0013 1.0000 -0.0044
vn -0.0667 0.9794 0.1907
vn -0.0249 0.9953 0.0939
vn -0.0215 0.9990 0.0384
vn 0.0002 1.0000 -0.0083
vn 0.1411 0.9677 0.2090
vn -0.1751 0.9654 0.1933
vn -0.0293 0.9991 -0.0293
vn -0.1990 0.9639 -0.1767
vn -0.1942 0.9740 -0.1170
vn -0.2406 0.9559 -0.1683
vn 0.0374 0.9931 0.1108
vn 0.0000 1.0000 -0.0000
vn -0.0013 1.0000 -0.0001
vn -0.0305 0.9991 -0.0305
vn 0.0005 1.0000 -0.0001
vn -0.0038 1.0000 -0.0005
vn -0.0038 1.0000 -0.0009
vn -0.2176 0.9758 -0.0218
vn 0.2823 0.8300 0.4810
vn -0.0430 0.9981 -0.0433
vn -0.1450 0.9802 -0.1350
vn -0.4661 0.8840 -0.0362
vn -0.2178 0.8815 -0.4189
vn -0.4021 0.8668 -0.2948
vn -0.2198 0.9698 -0.1060
vn -0.0001 1.0000 -0.0001
vn 0.0000 1.0000 -0.0002
vn -0.0024 1.0000 0.0063
vn -0.2050 0.9100 -0.3603
vn -0.0008 1.0000 -0.0014
vn 0.0006 1.0000 -0.0005
vn -0.0003 1.0000 -0.0000
vn -0.0002 1.0000 -0.0000
vn -0.1734 0.9695 -0.1734
vn 0.0000 1.0000 -0.0043
vn -0.0038 1.0000 -0.0000
vn -0.0624 0.9163 0.3955
# 90 vertex normals

vt 0.3333 0.7662 0.0000
vt 0.2528 0.8065 0.0000
vt 0.2830 0.7662 0.0000
vt 0.4843 0.3837 0.0000
vt 0.4642 0.4340 0.0000
vt 0.4239 0.4239 0.0000
vt 0.3233 0.6555 0.0000
vt 0.3535 0.6354 0.0000
vt 0.3434 0.6656 0.0000
vt 0.3434 0.7260 0.0000
vt 0.3434 0.7461 0.0000
vt 0.3132 0.7360 0.0000
vt 0.4541 0.4541 0.0000
vt 0.4239 0.4541 0.0000
vt 0.3837 0.5246 0.0000
vt 0.3736 0.5649 0.0000
vt 0.3619 0.5448 0.0000
vt 0.3132 0.6454 0.0000
vt 0.2629 0.5548 0.0000
vt 0.2931 0.5548 0.0000
vt 0.3132 0.7964 0.0000
vt 0.7662 0.6958 0.0000
vt 0.7964 0.6958 0.0000
vt 0.7562 0.7360 0.0000
vt 0.2931 0.6958 0.0000
vt 0.3132 0.6958 0.0000
vt 0.2830 0.7360 0.0000
vt 0.4441 0.5246 0.0000
vt 0.4203 0.5703 0.0000
vt 0.3837 0.6555 0.0000
vt 0.3434 0.6857 0.0000
vt 0.7763 0.6756 0.0000
vt 0.8065 0.6555 0.0000
vt 0.3233 0.6857 0.0000
vt 0.2830 0.6857 0.0000
vt 0.4843 0.4642 0.0000
vt 0.4843 0.4843 0.0000
vt 0.4541 0.4743 0.0000
vt 0.4743 0.4340 0.0000
vt 0.4843 0.4441 0.0000
vt 0.3937 0.6555 0.0000
vt 0.7662 0.6555 0.0000
vt 0.7260 0.6656 0.0000
vt 0.7461 0.7058 0.0000
vt 0.7260 0.7159 0.0000
vt 0.3535 0.4944 0.0000
vt 0.3635 0.4642 0.0000
vt 0.3736 0.4843 0.0000
vt 0.7461 0.7562 0.0000
vt 0.4340 0.4340 0.0000
vt 0.3736 0.6857 0.0000
vt 0.7662 0.5951 0.0000
vt 0.7159 0.6756 0.0000
vt 0.2528 0.7964 0.0000
vt 0.2830 0.7260 0.0000
vt 0.2729 0.6958 0.0000
vt 0.2729 0.7662 0.0000
vt 0.3543 0.8606 0.0000
vt 0.7360 0.5246 0.0000
vt 0.8065 0.6052 0.0000
vt 0.8065 0.6857 0.0000
vt 0.3837 0.5145 0.0000
vt 0.4046 0.4847 0.0000
vt 0.4360 0.4697 0.0000
vt 0.3837 0.4944 0.0000
vt 0.0889 0.4862 0.0000
vt 0.3299 0.5466 0.0000
vt 0.5045 0.4441 0.0000
vt 0.2427 0.5649 0.0000
vt 0.6756 0.3736 0.0000
vt 0.3015 0.2125 0.0000
vt 0.7260 0.7662 0.0000
# 72 texture coords

g default
usemtl 02___Default
s 1
f 1/1/1 2/2/2 3/3/3 
f 4/4/4 5/5/5 6/6/6 
f 7/7/7 8/8/8 9/9/9 
f 10/10/10 11/11/11 12/12/12 
f 5/5/13 13/13/14 14/14/15 
f 12/12/16 1/1/1 3/3/3 
f 15/15/17 16/16/18 17/17/19 
f 18/18/20 19/19/21 20/20/22 
f 1/1/1 21/21/23 2/2/24 
f 22/22/25 23/23/26 24/24/27 
f 25/25/28 26/26/29 27/27/30 
f 26/26/29 10/10/10 12/12/16 
f 15/15/17 28/28/31 29/29/32 16/16/18 
f 9/9/9 30/30/33 31/31/34 
f 32/32/35 23/23/26 22/22/25 
f 33/33/36 23/23/26 32/32/35 
f 7/7/7 34/34/37 35/35/38 
f 36/36/39 37/37/40 38/38/41 
f 39/39/42 40/40/43 13/13/14 
f 41/41/44 8/8/8 16/16/18 29/29/45 
f 42/42/46 32/32/35 22/22/25 
f 42/42/46 33/33/36 32/32/35 
f 26/26/29 31/31/34 10/10/10 
f 43/43/47 44/44/48 45/45/49 
f 46/46/50 47/47/51 48/48/52 
f 35/35/53 34/34/37 25/25/28 
f 12/12/16 11/11/11 1/1/1 
f 7/7/7 9/9/9 34/34/37 
f 9/9/9 31/31/34 34/34/37 
f 38/38/41 13/13/14 36/36/39 
f 13/13/14 40/40/43 36/36/39 
f 44/44/54 49/49/55 45/45/56 
f 44/44/48 22/22/25 24/24/27 
f 42/42/46 22/22/25 44/44/48 
f 18/18/20 8/8/8 7/7/7 
f 18/18/20 7/7/7 35/35/53 
f 50/50/57 5/5/13 14/14/15 
f 27/27/30 12/12/16 3/3/3 
f 26/26/29 12/12/16 27/27/30 
f 34/34/37 26/26/29 25/25/28 
f 34/34/37 31/31/34 26/26/29 
f 8/8/8 41/41/44 30/30/33 
f 8/8/8 30/30/33 9/9/9 
f 30/30/33 51/51/58 31/31/34 
f 31/31/34 51/51/58 10/10/10 
f 5/5/13 39/39/42 13/13/14 
f 4/4/4 39/39/42 5/5/13 
f 52/52/59 43/43/47 53/53/60 
f 53/53/60 43/43/47 45/45/49 
f 43/43/47 42/42/46 44/44/48 
f 3/3/3 2/2/24 54/54/61 
f 25/25/28 27/27/30 55/55/62 
f 35/35/53 25/25/28 56/56/63 
f 18/18/20 35/35/53 56/56/63 
f 57/57/64 3/3/3 54/54/61 
f 27/27/30 3/3/3 57/57/64 
f 58/58/65 41/41/65 52/52/66 53/53/65 
f 28/28/67 59/59/68 52/52/66 41/41/65 
f 29/29/65 28/28/67 41/41/65 
f 52/52/66 42/42/69 43/43/70 
f 33/33/36 52/52/59 60/60/71 
f 33/33/36 61/61/72 23/23/26 
f 28/28/67 37/37/73 59/59/68 
f 38/38/41 28/28/31 62/62/74 
f 15/15/17 62/62/74 28/28/31 
f 38/38/41 62/62/74 63/63/75 
f 14/14/15 13/13/14 64/64/76 
f 14/14/15 47/47/51 50/50/77 
f 14/14/15 48/48/52 47/47/51 
f 6/6/6 5/5/13 50/50/77 
f 50/50/77 47/47/51 6/6/6 
f 62/62/74 65/65/78 63/63/75 
f 48/48/52 14/14/15 63/63/75 65/65/78 
f 64/64/76 38/38/41 63/63/75 
f 64/64/76 63/63/75 14/14/15 
f 64/64/76 13/13/14 38/38/41 
f 66/66/79 6/6/79 47/47/80 46/46/80 
f 16/16/18 8/8/8 67/67/81 
f 16/16/18 67/67/81 17/17/19 
f 68/68/82 37/37/40 36/36/39 
f 18/18/20 56/56/63 69/69/65 19/19/21 
f 67/67/81 8/8/8 18/18/20 20/20/22 
f 68/68/83 70/70/84 37/37/73 
f 66/66/79 71/71/85 4/4/86 
f 66/66/79 4/4/86 6/6/79 
f 37/37/73 70/70/84 59/59/68 
f 28/28/67 38/38/87 37/37/73 
f 53/53/65 45/45/56 58/58/65 
f 45/45/56 72/72/88 58/58/65 
f 52/52/66 33/33/89 42/42/69 
f 49/49/55 72/72/88 45/45/56 
f 44/44/54 24/24/90 49/49/55 
# 8 polygons - 84 triangles

