# 3ds Max Wavefront OBJ Exporter v0.97b - (c)2007 guruware
# File Created: 11.08.2014 16:27:38

mtllib WangGuoJun_ChengZhen_01.mtl

#
# object WangGuoJun_ChengZhen_01
#

v  27.6543 166.9066 59.7876
v  36.6735 166.9066 48.0481
v  9.6750 166.9066 47.4075
v  12.5775 165.6000 39.6675
v  16.4475 165.6000 36.7650
v  0.0000 165.6000 29.9925
v  2.9025 165.6000 39.6675
v  23.2200 166.0319 29.0250
v  24.1875 166.9474 30.9600
v  24.1875 166.5812 27.0900
v  3.8700 165.6000 40.6350
v  5.8050 165.6000 45.4725
v  15.4800 166.9066 43.5375
v  0.0000 169.0167 5.8050
v  6.7725 169.0167 12.5775
v  7.7400 169.0167 4.8375
v  16.4475 166.2333 39.6675
v  17.4150 166.9066 41.6025
v  20.3175 166.4713 36.7650
v  19.3500 165.6000 29.9925
v  20.3175 166.0868 32.8950
v  22.2525 166.1051 30.9600
v  13.5450 166.9841 43.5375
v  14.5125 165.7755 41.6025
v  9.6750 165.6000 44.5050
v  0.0000 165.6000 39.6675
v  2.9025 166.9066 41.6025
v  4.8375 166.9066 47.4075
v  9.6750 169.0167 12.5775
v  12.5775 168.9068 9.6750
v  23.2200 165.6000 24.1875
v  21.2850 165.6000 27.0900
v  23.2200 165.5558 26.1225
v  26.4435 166.6728 23.5024
v  2.9025 169.0167 16.4475
v  6.7725 165.6000 14.5125
v  13.5450 165.6000 12.5775
v  9.6750 167.8447 13.5450
v  0.0000 168.3758 18.3825
v  2.9025 165.6000 17.4150
v  22.2525 166.5080 35.7975
v  24.1875 166.9066 35.7975
v  0.0000 165.6000 20.3175
v  2.7482 166.9066 44.4825
v  0.0000 166.9066 40.6350
v  1.9350 166.9841 40.6350
v  26.1225 166.9066 25.1550
v  20.3175 166.2333 34.8300
v  28.0575 166.9066 23.2200
v  25.1550 165.6473 22.2525
v  18.3825 166.1967 36.7650
v  87.3174 166.9066 64.0058
v  95.7825 166.9066 95.7825
v  95.7825 166.9066 43.6150
v  72.9312 166.9066 95.7825
v  79.0662 166.9066 81.7770
v  95.7825 166.9066 -0.0000
v  73.6971 166.9066 -0.0000
v  67.0929 166.9066 14.9251
v  45.8412 166.9066 26.8330
v  52.2450 166.9066 -0.0000
v  82.6404 166.9066 30.4728
v  47.9527 166.9066 58.1808
v  73.9917 166.9066 50.3108
v  51.7610 166.9066 49.5744
v  65.4385 166.9066 70.3592
v  43.4495 166.9066 68.3578
v  54.4742 166.9066 95.7825
v  57.4569 166.9066 36.5207
v  31.3144 166.9066 95.7825
v  0.0000 166.9066 95.7825
# 71 vertices

vn -0.0000 1.0000 -0.0000
vn 0.0000 1.0000 -0.0000
vn -0.0469 0.9987 -0.0209
vn -0.1849 0.9704 -0.1552
vn 0.1317 0.9532 -0.2722
vn -0.4312 0.8937 -0.1238
vn -0.2520 0.9661 -0.0564
vn -0.4697 0.8659 -0.1720
vn 0.2744 0.9446 -0.1799
vn 0.1720 0.9280 -0.3306
vn -0.0293 0.9995 0.0080
vn 0.1229 0.9196 0.3731
vn 0.0073 1.0000 -0.0018
vn -0.2151 0.9552 -0.2035
vn -0.1524 0.9805 -0.1241
vn -0.1488 0.9770 -0.1526
vn -0.0741 0.9962 -0.0459
vn -0.1620 0.9824 -0.0925
vn -0.1086 0.9893 -0.0972
vn -0.1589 0.9232 -0.3500
vn -0.0601 0.9844 -0.1652
vn -0.2064 0.9547 -0.2145
vn -0.1531 0.9540 -0.2578
vn 0.0000 0.8930 -0.4500
vn 0.3753 0.9042 -0.2041
vn 0.0770 0.9881 -0.1333
vn 0.2069 0.8633 0.4602
vn 0.2952 0.9193 0.2604
vn -0.0956 0.9952 -0.0213
vn -0.0266 0.9986 -0.0449
vn -0.2500 0.9623 -0.1072
vn -0.3954 0.8919 -0.2194
vn 0.2959 0.7990 0.5235
vn -0.2891 0.9552 -0.0631
vn 0.2638 0.7900 0.5534
vn 0.3939 0.7039 0.5910
vn 0.2339 0.4206 0.8766
vn 0.4049 0.6720 0.6201
vn 0.3709 0.7892 0.4894
vn -0.1473 0.9596 -0.2397
vn -0.0689 0.9973 -0.0256
vn 0.2402 0.9405 0.2402
vn -0.0089 0.8931 -0.4498
vn 0.1321 0.8969 -0.4220
vn -0.1278 0.9902 -0.0557
vn 0.0477 0.9973 -0.0558
vn -0.2357 0.9633 -0.1282
vn -0.1441 0.9846 -0.0995
vn -0.2521 0.9674 -0.0252
vn 0.0025 1.0000 0.0004
vn 0.0463 0.9989 0.0084
vn 0.0021 1.0000 0.0004
vn -0.1258 0.9882 -0.0869
vn -0.2369 0.8466 -0.4765
vn -0.0809 0.9644 -0.2516
vn 0.1903 0.6096 -0.7696
vn 0.2370 0.9041 0.3555
vn -0.1734 0.9738 -0.1471
vn 0.0000 0.9923 -0.1239
vn -0.2003 0.9637 -0.1767
vn -0.0559 0.9865 -0.1542
vn -0.4005 0.8960 -0.1919
vn 0.1258 0.9110 -0.3927
vn -0.1913 0.9580 -0.2134
vn -0.2227 0.9653 -0.1363
vn -0.0000 1.0000 0.0000
vn 0.0000 1.0000 0.0000
# 67 vertex normals

vt 0.6242 0.2887 0.0000
vt 0.5016 0.3829 0.0000
vt 0.4949 0.1010 0.0000
vt 0.4141 0.1313 0.0000
vt 0.3838 0.1717 0.0000
vt 0.3131 -0.0000 0.0000
vt 0.4141 0.0303 0.0000
vt 0.3030 0.2424 0.0000
vt 0.3232 0.2525 0.0000
vt 0.2828 0.2525 0.0000
vt 0.4242 0.0404 0.0000
vt 0.4747 0.0606 0.0000
vt 0.4545 0.1616 0.0000
vt 0.0606 -0.0000 0.0000
vt 0.1313 0.0707 0.0000
vt 0.0505 0.0808 0.0000
vt 0.4141 0.1717 0.0000
vt 0.4343 0.1818 0.0000
vt 0.3838 0.2121 0.0000
vt 0.3131 0.2020 0.0000
vt 0.3434 0.2121 0.0000
vt 0.3232 0.2323 0.0000
vt 0.4545 0.1414 0.0000
vt 0.4343 0.1515 0.0000
vt 0.4646 0.1010 0.0000
vt 0.4141 0.0000 0.0000
vt 0.4343 0.0303 0.0000
vt 0.4949 0.0505 0.0000
vt 0.1313 0.1010 0.0000
vt 0.1010 0.1313 0.0000
vt 0.2525 0.2424 0.0000
vt 0.2828 0.2222 0.0000
vt 0.2727 0.2424 0.0000
vt 0.2454 0.2761 0.0000
vt 0.1717 0.0303 0.0000
vt 0.1515 0.0707 0.0000
vt 0.1313 0.1414 0.0000
vt 0.1414 0.1010 0.0000
vt 0.1919 -0.0000 0.0000
vt 0.1818 0.0303 0.0000
vt 0.3737 0.2323 0.0000
vt 0.3737 0.2525 0.0000
vt 0.2121 -0.0000 0.0000
vt 0.4644 0.0287 0.0000
vt 0.4242 0.0000 0.0000
vt 0.4242 0.0202 0.0000
vt 0.2626 0.2727 0.0000
vt 0.3636 0.2121 0.0000
vt 0.2424 0.2929 0.0000
vt 0.2323 0.2626 0.0000
vt 0.3838 0.1919 0.0000
vt 0.6682 0.9116 0.0000
vt 1.0000 1.0000 0.0000
vt 0.4554 1.0000 0.0000
vt 1.0000 0.7614 0.0000
vt 0.8538 0.8255 0.0000
vt 0.0000 1.0000 0.0000
vt 0.0000 0.7694 0.0000
vt 0.1558 0.7005 0.0000
vt 0.2801 0.4786 0.0000
vt 0.0000 0.5455 0.0000
vt 0.3181 0.8628 0.0000
vt 0.5253 0.7725 0.0000
vt 0.5176 0.5404 0.0000
vt 0.6074 0.5006 0.0000
vt 0.5253 0.7725 0.0000
vt 0.7346 0.6832 0.0000
vt 0.7137 0.4536 0.0000
vt 1.0000 0.5687 0.0000
vt 0.3813 0.5999 0.0000
vt 1.0000 0.3269 0.0000
vt 0.7137 0.4536 0.0000
vt 1.0000 0.0000 0.0000
# 73 texture coords

g WangGuoJun_ChengZhen_01
usemtl default
s 1
f 1/1/1 2/2/1 3/3/2 
f 4/4/3 5/5/4 6/6/2 
f 7/7/5 4/4/3 6/6/2 
f 8/8/6 9/9/7 10/10/8 
f 11/11/9 12/12/10 4/4/3 
f 2/2/1 13/13/2 3/3/2 
f 14/14/11 15/15/12 16/16/13 
f 17/17/14 18/18/15 19/19/16 
f 20/20/17 21/21/18 22/22/19 
f 23/23/20 13/13/21 24/24/22 
f 4/4/3 12/12/10 25/25/23 
f 26/26/24 7/7/5 6/6/2 
f 27/27/25 28/28/26 11/11/9 
f 29/29/27 30/30/28 16/16/13 
f 31/31/29 32/32/30 33/33/31 
f 31/31/29 33/33/31 34/34/32 
f 35/35/33 15/15/12 14/14/11 
f 24/24/22 18/18/15 17/17/34 
f 12/12/10 28/28/26 25/25/23 
f 28/28/26 12/12/10 11/11/9 
f 36/36/35 6/6/2 37/37/36 
f 36/36/35 37/37/36 38/38/37 
f 14/14/11 39/39/38 35/35/33 
f 39/39/38 40/40/39 35/35/33 
f 21/21/18 41/41/40 22/22/19 
f 19/19/16 18/18/15 42/42/41 
f 43/43/42 6/6/2 40/40/39 
f 39/39/38 43/43/42 40/40/39 
f 15/15/12 36/36/35 38/38/37 
f 15/15/12 29/29/27 16/16/13 
f 28/28/2 27/27/2 44/44/2 
f 45/45/43 46/46/44 7/7/5 
f 45/45/43 44/44/2 27/27/25 
f 5/5/45 21/21/18 20/20/17 
f 6/6/2 5/5/45 20/20/17 
f 6/6/2 31/31/29 37/37/46 
f 34/34/32 33/33/31 47/47/47 
f 48/48/48 41/41/40 21/21/18 
f 21/21/18 5/5/4 48/48/48 
f 42/42/41 9/9/7 41/41/49 
f 47/47/50 9/9/51 42/42/52 
f 35/35/47 40/40/7 36/36/41 
f 7/7/33 27/27/39 11/11/35 
f 7/7/5 11/11/25 4/4/9 
f 35/35/5 36/36/9 15/15/3 
f 32/32/33 22/22/35 33/33/12 
f 33/33/30 8/8/19 10/10/31 
f 36/36/31 40/40/6 6/6/8 
f 26/26/35 45/45/39 7/7/2 
f 33/33/2 10/10/53 47/47/45 
f 9/9/31 47/47/8 10/10/47 
f 34/34/7 47/47/47 49/49/8 
f 50/50/54 34/34/47 49/49/55 
f 45/45/56 27/27/54 46/46/55 
f 46/46/43 27/27/25 7/7/44 
f 25/25/44 23/23/25 24/24/5 
f 3/3/2 13/13/46 23/23/57 
f 3/3/58 23/23/21 25/25/20 
f 41/41/58 8/8/20 22/22/23 
f 22/22/49 8/8/6 33/33/19 
f 18/18/2 2/2/1 42/42/2 
f 24/24/19 13/13/6 18/18/31 
f 15/15/22 38/38/21 29/29/15 
f 19/19/21 42/42/2 41/41/15 
f 25/25/12 28/28/37 3/3/59 
f 31/31/23 34/34/32 50/50/60 
f 37/37/61 31/31/58 50/50/60 
f 4/4/29 24/24/62 17/17/34 
f 25/25/46 24/24/29 4/4/63 
f 5/5/4 17/17/22 51/51/64 
f 4/4/23 17/17/22 5/5/4 
f 5/5/4 51/51/14 48/48/65 
f 48/48/3 19/19/14 41/41/53 
f 29/29/53 38/38/65 37/37/36 
f 29/29/48 37/37/36 30/30/40 
f 52/52/66 53/53/1 54/54/66 
f 6/6/27 32/32/57 31/31/28 
f 17/17/2 19/19/2 51/51/2 
f 51/51/2 19/19/30 48/48/29 
f 6/6/14 20/20/16 32/32/65 
f 20/20/65 22/22/16 32/32/48 
f 55/55/2 53/53/2 56/56/2 
f 56/56/2 53/53/2 52/52/66 
f 9/9/63 8/8/62 41/41/54 
f 57/57/2 58/58/2 59/59/2 
f 60/60/2 61/61/2 49/49/2 
f 42/42/2 2/2/50 49/49/2 47/47/2 
f 57/57/2 59/59/2 62/62/2 
f 63/65/2 64/66/67 64/63/67 65/64/2 
f 66/67/2 67/68/2 68/69/67 
f 49/49/2 2/2/2 60/60/2 
f 65/64/2 64/63/67 69/70/2 
f 68/69/67 67/68/2 67/72/66 70/71/66 
f 61/61/2 60/60/2 59/59/2 
f 59/59/2 60/60/2 69/70/2 
f 69/70/2 2/2/1 65/64/2 
f 65/64/2 2/2/1 63/65/2 
f 63/65/2 2/2/1 67/68/2 
f 1/1/1 67/72/66 67/68/2 2/2/1 
f 54/54/66 57/57/2 62/62/2 
f 52/52/66 66/67/2 56/56/2 
f 56/56/2 68/69/67 55/55/2 
f 69/70/2 64/63/67 62/62/2 
f 62/62/2 64/63/67 54/54/66 
f 64/63/67 52/52/66 54/54/66 
f 59/59/2 58/58/2 61/61/2 
f 62/62/2 59/59/2 69/70/2 
f 63/65/2 66/67/2 64/66/67 
f 52/52/66 64/63/67 64/66/67 66/67/2 
f 56/56/2 66/67/2 68/69/67 
f 66/67/2 63/65/2 67/68/2 
f 18/18/2 13/13/15 2/2/1 
f 28/28/2 71/73/2 1/1/1 
f 1/1/1 70/71/66 67/72/66 
f 45/45/2 71/73/2 44/44/2 
f 44/44/2 71/73/2 28/28/2 
f 3/3/2 28/28/2 1/1/1 
f 69/70/2 60/60/2 2/2/1 
f 1/1/1 71/73/2 70/71/66 
# 5 polygons - 114 triangles

