# 3ds Max Wavefront OBJ Exporter v0.97b - (c)2007 guruware
# File Created: 18.08.2014 19:29:26

mtllib Loading.mtl

#
# object Loading
#

v  55.0000 152.3237 -0.0000
v  55.0000 152.3237 12.0000
v  64.0000 152.3237 12.0000
v  64.0000 152.3237 -0.0000
v  28.0000 152.3237 36.0000
v  37.0000 152.3237 36.0000
v  37.0000 152.3237 24.0000
v  28.0000 152.3237 24.0000
v  37.0000 152.3237 12.0000
v  28.0000 152.3237 12.0000
v  28.0000 152.3237 48.0000
v  37.0000 152.3237 48.0000
v  37.0000 152.3237 -0.0000
v  46.0000 152.3237 12.0000
v  46.0000 152.3237 -0.0000
v  55.0000 152.3237 36.0000
v  55.0000 152.3237 24.0000
v  46.0000 152.3237 24.0000
v  46.0000 152.3237 36.0000
v  55.0000 152.3237 48.0000
v  46.0000 152.3237 48.0000
v  28.0000 152.3237 -0.0000
v  64.0000 152.3237 36.0000
v  64.0000 152.3237 24.0000
v  64.0000 152.3237 48.0000
# 25 vertices

vn 0.0000 1.0000 -0.0000
# 1 vertex normals

vt 0.0000 0.8594 0.0000
vt 0.1875 0.8594 0.0000
vt 0.1875 1.0000 0.0000
vt 0.0000 1.0000 0.0000
vt 0.5625 0.4375 0.0000
vt 0.5625 0.5781 0.0000
vt 0.3750 0.5781 0.0000
vt 0.3750 0.4375 0.0000
vt 0.1875 0.5781 0.0000
vt 0.1875 0.4375 0.0000
vt 0.7500 0.4375 0.0000
vt 0.7500 0.5781 0.0000
vt 0.0000 0.5781 0.0000
vt 0.1875 0.7188 0.0000
vt 0.0000 0.7188 0.0000
vt 0.5625 0.8594 0.0000
vt 0.3750 0.8594 0.0000
vt 0.3750 0.7188 0.0000
vt 0.5625 0.7188 0.0000
vt 0.7500 0.8594 0.0000
vt 0.7500 0.7188 0.0000
vt 0.0000 0.4375 0.0000
vt 0.5625 1.0000 0.0000
vt 0.3750 1.0000 0.0000
vt 0.7500 1.0000 0.0000
# 25 texture coords

g Loading
usemtl _Terrain1default
s 1
f 1/1/1 2/2/1 3/3/1 4/4/1 
f 5/5/1 6/6/1 7/7/1 8/8/1 
f 8/8/1 7/7/1 9/9/1 10/10/1 
f 11/11/1 12/12/1 6/6/1 5/5/1 
f 13/13/1 9/9/1 14/14/1 15/15/1 
f 16/16/1 17/17/1 18/18/1 19/19/1 
f 17/17/1 2/2/1 14/14/1 18/18/1 
f 20/20/1 16/16/1 19/19/1 21/21/1 
f 15/15/1 14/14/1 2/2/1 1/1/1 
f 19/19/1 18/18/1 7/7/1 6/6/1 
f 18/18/1 14/14/1 9/9/1 7/7/1 
f 21/21/1 19/19/1 6/6/1 12/12/1 
f 22/22/1 10/10/1 9/9/1 13/13/1 
f 23/23/1 24/24/1 17/17/1 16/16/1 
f 24/24/1 3/3/1 2/2/1 17/17/1 
f 25/25/1 23/23/1 16/16/1 20/20/1 
# 16 polygons

